<svg xmlns="http://www.w3.org/2000/svg" fill="#ffffff" viewBox="0 0 28.17 28.17"><g id="Capa_2" data-name="Capa 2"><g id="Wireframes"><path d="M15,28.17H13.2a2.21,2.21,0,0,1-2.21-2l-.23-2.26a9.64,9.64,0,0,1-1.27-.52L7.73,24.82a2.22,2.22,0,0,1-3-.15L3.5,23.42a2.22,2.22,0,0,1-.15-3l1.43-1.76a10.67,10.67,0,0,1-.53-1.27L2,17.18A2.22,2.22,0,0,1,0,15V13.2A2.21,2.21,0,0,1,2,11l2.26-.23a9.64,9.64,0,0,1,.52-1.27L3.35,7.73a2.22,2.22,0,0,1,.15-3L4.75,3.5a2.21,2.21,0,0,1,3-.15L9.49,4.78a10.67,10.67,0,0,1,1.27-.53L11,2A2.21,2.21,0,0,1,13.2,0H15a2.22,2.22,0,0,1,2.21,2l.23,2.26a9.64,9.64,0,0,1,1.27.52l1.76-1.43a2.22,2.22,0,0,1,3,.15l1.25,1.25a2.22,2.22,0,0,1,.15,3L23.39,9.49a10.59,10.59,0,0,1,.52,1.27l2.26.23a2.21,2.21,0,0,1,2,2.21V15a2.22,2.22,0,0,1-2,2.21l-2.26.23a10.23,10.23,0,0,1-.52,1.27l1.43,1.76a2.22,2.22,0,0,1-.15,3l-1.25,1.25a2.22,2.22,0,0,1-3,.15l-1.76-1.43a10.59,10.59,0,0,1-1.27.52l-.23,2.26a2.22,2.22,0,0,1-2.21,2M9.4,21.76a.68.68,0,0,1,.36.1,9.14,9.14,0,0,0,1.89.78.73.73,0,0,1,.53.63L12.46,26a.75.75,0,0,0,.74.67H15a.75.75,0,0,0,.74-.67L16,23.27a.73.73,0,0,1,.53-.63,9,9,0,0,0,1.89-.78.74.74,0,0,1,.83.07l2.14,1.74a.74.74,0,0,0,1-.05l1.25-1.25a.74.74,0,0,0,.05-1l-1.74-2.14a.73.73,0,0,1-.07-.83,9.37,9.37,0,0,0,.78-1.89.73.73,0,0,1,.64-.53L26,15.71a.75.75,0,0,0,.67-.74V13.2a.75.75,0,0,0-.67-.74l-2.74-.28a.73.73,0,0,1-.64-.54,9.13,9.13,0,0,0-.78-1.88.74.74,0,0,1,.07-.83l1.74-2.14a.74.74,0,0,0-.05-1L22.37,4.55a.74.74,0,0,0-1,0L19.24,6.24a.74.74,0,0,1-.83.07,9.14,9.14,0,0,0-1.89-.78A.75.75,0,0,1,16,4.89l-.28-2.74A.75.75,0,0,0,15,1.48H13.2a.75.75,0,0,0-.74.67l-.28,2.74a.73.73,0,0,1-.54.64,9.13,9.13,0,0,0-1.88.78.74.74,0,0,1-.83-.07L6.79,4.5a.74.74,0,0,0-1,0L4.55,5.8a.74.74,0,0,0,0,1L6.24,8.93a.74.74,0,0,1,.07.83,8.83,8.83,0,0,0-.78,1.89.74.74,0,0,1-.64.53l-2.74.28a.75.75,0,0,0-.67.74V15a.75.75,0,0,0,.67.74L4.89,16a.75.75,0,0,1,.64.54,9,9,0,0,0,.78,1.89.74.74,0,0,1-.07.83L4.5,21.37a.75.75,0,0,0,0,1L5.8,23.62a.74.74,0,0,0,1,.05l2.14-1.74a.73.73,0,0,1,.47-.17"/><path d="M14.08,19.27a5.19,5.19,0,1,1,5.19-5.19,5.19,5.19,0,0,1-5.19,5.19m0-8.89a3.71,3.71,0,1,0,3.71,3.7,3.7,3.7,0,0,0-3.71-3.7"/></g></g></svg>