<svg xmlns="http://www.w3.org/2000/svg" viewBox="0 0 11.69 10.16"><defs><style>.cls-1{fill:#231f20;}</style></defs><title>Recurso 80</title><g id="Capa_2" data-name="Capa 2"><g id="Capa_1-2" data-name="Capa 1"><path class="cls-1" d="M5.85,10.16a.3.3,0,0,1-.16-.05l-.37-.22C3.46,8.79,0,6.74,0,3.39A3.38,3.38,0,0,1,5.85,1.07a3.37,3.37,0,0,1,5.84,2.32c0,3.35-3.46,5.4-5.32,6.5L6,10.11a.33.33,0,0,1-.16.05M3.39.62A2.77,2.77,0,0,0,.62,3.39c0,3,3.26,4.94,5,6l.21.12.21-.13c1.75-1,5-3,5-6a2.77,2.77,0,0,0-5-1.66.32.32,0,0,1-.49,0A2.77,2.77,0,0,0,3.39.62"/></g></g></svg>