<svg xmlns="http://www.w3.org/2000/svg" viewBox="0 0 9.45 9"><defs><style>.cls-1{fill:silver;}</style></defs><title>Recurso 150</title><g id="Capa_2" data-name="Capa 2"><g id="Capa_1-2" data-name="Capa 1"><path class="cls-1" d="M9.43,3.39A.42.42,0,0,0,9,3.09l-3,0L5.13.27A.44.44,0,0,0,4.55,0a.4.4,0,0,0-.23.23l-.9,2.84-3,0a.42.42,0,0,0-.41.3.43.43,0,0,0,.16.48L2.61,5.6,1.67,8.44A.42.42,0,0,0,1.94,9a.45.45,0,0,0,.39-.06l2.4-1.78,2.4,1.78a.43.43,0,0,0,.6-.09.45.45,0,0,0,.06-.39L6.85,5.6,9.28,3.87A.43.43,0,0,0,9.43,3.39Z"/></g></g></svg>