<svg xmlns="http://www.w3.org/2000/svg" fill="#ffffff" viewBox="0 0 10.32 14.67"><defs><style>.cls-1{fill:none;stroke:#ffffff;stroke-miterlimit:10;stroke-width:0.32px;}</style></defs><g id="Capa_2" data-name="Capa 2"><g id="Wireframes"><path id="handset" class="cls-1" d="M2,8.87l0,.06a.43.43,0,0,0,0,.07c2.32,4,6.32,6.42,7.06,5.18l.93-1.78a.52.52,0,0,0,0-.51h0c-.13-.25-.25-.26-.94-.71-.35-.27-.73-.56-1-.78a.58.58,0,0,0-.78,0L7,10.74a.7.7,0,0,1-.5.2c-.55,0-1.61-1.51-2.2-2.43C4.11,8.25,4,8,3.9,7.89s-.2-.36-.34-.63c-.5-1-1.25-2.65-1-3.14A.7.7,0,0,1,3,3.79l.52-.14A.59.59,0,0,0,3.9,3c-.07-.33-.13-.8-.18-1.24,0-.82,0-.93-.14-1.17h0A.52.52,0,0,0,3.15.25l-2-.09C-.3.17-.27,4.83,2,8.87Z"/></g></g></svg>