<svg xmlns="http://www.w3.org/2000/svg" xmlns:xlink="http://www.w3.org/1999/xlink" viewBox="0 0 116.11 129.72"><defs><style>.cls-1{fill:none;}.cls-2{clip-path:url(#clip-path);}.cls-3{fill:silver;}</style><clipPath id="clip-path" transform="translate(-20.76 -36.41)"><circle class="cls-1" cx="78.82" cy="78.82" r="78.82"/></clipPath></defs><g id="Capa_2" data-name="Capa 2"><g id="Wireframes"><g class="cls-2"><path class="cls-3" d="M78.83,36.41a33.68,33.68,0,1,0,33.68,33.68A33.76,33.76,0,0,0,78.83,36.41Z" transform="translate(-20.76 -36.41)"/><path class="cls-3" d="M136.63,130.69a31.34,31.34,0,0,0-3.39-6.18,41.85,41.85,0,0,0-29-18.24,6.23,6.23,0,0,0-4.26,1,35.91,35.91,0,0,1-42.36,0,5.56,5.56,0,0,0-4.27-1,41.58,41.58,0,0,0-29,18.24A36.19,36.19,0,0,0,21,130.69a3.12,3.12,0,0,0,.14,2.79,59.13,59.13,0,0,0,4,5.88A55.53,55.53,0,0,0,31.91,147a86.52,86.52,0,0,0,6.77,5.88,67,67,0,0,0,80,0,63.41,63.41,0,0,0,6.77-5.88,67.58,67.58,0,0,0,6.77-7.65,51.8,51.8,0,0,0,4-5.88A2.51,2.51,0,0,0,136.63,130.69Z" transform="translate(-20.76 -36.41)"/></g></g></g></svg>