<svg xmlns="http://www.w3.org/2000/svg"  viewBox="0 0 31.05 24.63" fill="#ffffff"><defs><style>.cls-1{stroke:#000;stroke-miterlimit:10;stroke-width:0.25px;}</style></defs><g id="Capa_2" data-name="Capa 2"><g id="Wireframes"><path  class="cls-1" d="M20.66,20.66a6.42,6.42,0,1,1,6.41-6.42A6.43,6.43,0,0,1,20.66,20.66Zm0-11.55a5.13,5.13,0,1,0,5.13,5.13A5.14,5.14,0,0,0,20.66,9.11Z"/><path   class="cls-1" d="M27.71,24.51H3.33A3.21,3.21,0,0,1,.12,21.3V7.18A3.21,3.21,0,0,1,3.33,4H13.2l1-2.07A3.19,3.19,0,0,1,17.11.12h5.81A3.19,3.19,0,0,1,25.79,1.9l1,2.07h.88a3.21,3.21,0,0,1,3.21,3.21V21.3A3.21,3.21,0,0,1,27.71,24.51ZM3.33,5.26A1.92,1.92,0,0,0,1.41,7.18V21.3a1.92,1.92,0,0,0,1.92,1.92H27.71a1.92,1.92,0,0,0,1.93-1.92V7.18a1.92,1.92,0,0,0-1.93-1.92H26.43a.64.64,0,0,1-.57-.36L24.64,2.47a1.93,1.93,0,0,0-1.72-1.06H17.11a1.93,1.93,0,0,0-1.72,1.06L14.17,4.9a.64.64,0,0,1-.57.36Z"/><path class="cls-1" d="M9.75,5.26a.64.64,0,0,1-.64-.64V3.33a.64.64,0,0,0-.64-.64H5.9a.64.64,0,0,0-.64.64V4.62A.65.65,0,0,1,4,4.62V3.33A1.93,1.93,0,0,1,5.9,1.41H8.47a1.92,1.92,0,0,1,1.92,1.92V4.62A.64.64,0,0,1,9.75,5.26Z"/><path  class="cls-1" d="M9.75,11.67H4.62A.64.64,0,0,1,4,11V8.47a.65.65,0,0,1,.65-.65H9.75a.65.65,0,0,1,.64.65V11A.64.64,0,0,1,9.75,11.67ZM5.26,10.39H9.11V9.11H5.26Z"/></g></g></svg>