<svg xmlns="http://www.w3.org/2000/svg" fill="#ffffff" viewBox="0 0 22.59 21.58"><g id="Capa_2" data-name="Capa 2"><g id="Wireframes"><path d="M22.59,13.23v8a.36.36,0,0,1-.36.36H18.11a.36.36,0,0,1-.36-.36V13.79c0-1.95-.7-3.29-2.45-3.29a2.65,2.65,0,0,0-2.48,1.77,3.47,3.47,0,0,0-.16,1.18v7.77a.35.35,0,0,1-.35.35H8.18a.35.35,0,0,1-.35-.35c0-2,0-11.58,0-13.83A.34.34,0,0,1,8.19,7h4.12a.36.36,0,0,1,.35.36v1.7l0,.05h0V9.09A4.81,4.81,0,0,1,17,6.69c3.18,0,5.57,2.08,5.57,6.54ZM.67,21.58H4.79a.36.36,0,0,0,.36-.36V7.39A.36.36,0,0,0,4.79,7H.67a.36.36,0,0,0-.35.36V21.22A.36.36,0,0,0,.67,21.58Z"/><circle cx="2.59" cy="2.59" r="2.59"/></g></g></svg>