<svg xmlns="http://www.w3.org/2000/svg" viewBox="0 0 34.87 31.08"><g id="Capa_2" data-name="Capa 2"><g id="Menu_Mentor" data-name="Menu Mentor"><path d="M34.5,12.28,18,.17a.92.92,0,0,0-1.07,0L.37,12.28a.9.9,0,0,0-.19,1.26.9.9,0,0,0,1.26.2L17.43,2l16,11.71a.88.88,0,0,0,.53.17.87.87,0,0,0,.73-.37A.9.9,0,0,0,34.5,12.28Z"/><path d="M30.12,13.94a.91.91,0,0,0-.91.91V29.27H22V21.4a4.54,4.54,0,0,0-9.07,0v7.87H5.66V14.85a.91.91,0,0,0-1.82,0V30.18a.9.9,0,0,0,.91.9h9.06a.89.89,0,0,0,.9-.83.17.17,0,0,0,0-.07V21.4a2.72,2.72,0,1,1,5.43,0v8.78a.17.17,0,0,0,0,.07.9.9,0,0,0,.9.83h9.06a.9.9,0,0,0,.91-.9V14.85A.91.91,0,0,0,30.12,13.94Z"/></g></g></svg>