<svg xmlns="http://www.w3.org/2000/svg" fill="#ffffff" viewBox="0 0 10.24 21.84"><defs><style>.cls-1{fill-rule:evenodd;}</style></defs><g id="Capa_2" data-name="Capa 2"><g id="Wireframes"><path class="cls-1" d="M2.23,11l-.1,10.56a.27.27,0,0,0,.27.27l3.93,0a.27.27,0,0,0,.27-.27l.1-10.73,2.85,0a.27.27,0,0,0,.27-.25l.31-3.23a.29.29,0,0,0-.27-.31l-3.12,0,0-2.3a1,1,0,0,1,1-1l2.19,0a.27.27,0,0,0,.28-.27l0-3.24A.27.27,0,0,0,10,0L6.27,0a3.93,3.93,0,0,0-4,3.9L2.27,7h-2A.27.27,0,0,0,0,7.27L0,10.5a.28.28,0,0,0,.27.28l2,0Z"/></g></g></svg>