<svg xmlns="http://www.w3.org/2000/svg" fill="#009FE3" viewBox="0 0 21.86 21.86"><g id="Capa_2" data-name="Capa 2"><g id="Wireframes"><path d="M16.73,4.1a1.29,1.29,0,0,0,0,2.57,1.29,1.29,0,0,0,0-2.57Z"/><path d="M11,5.69a5.38,5.38,0,1,0,5.33,5.43A5.39,5.39,0,0,0,11,5.69Zm-.09,8.83a3.45,3.45,0,1,1,3.48-3.42A3.45,3.45,0,0,1,10.93,14.52Z"/><path d="M15.36.08,6.7,0A6.57,6.57,0,0,0,.08,6.5L0,15.16a6.56,6.56,0,0,0,6.5,6.62l8.66.08a6.55,6.55,0,0,0,6.62-6.5l.08-8.66A6.56,6.56,0,0,0,15.36.08Zm4.37,15.26a4.52,4.52,0,0,1-4.55,4.47l-8.66-.08a4.5,4.5,0,0,1-4.46-4.55l.08-8.66A4.51,4.51,0,0,1,6.68,2.05l8.66.09a4.51,4.51,0,0,1,4.47,4.54Z"/></g></g></svg>