<svg xmlns="http://www.w3.org/2000/svg" xmlns:xlink="http://www.w3.org/1999/xlink" viewBox="0 0 79.37 79.37"><defs><style>.cls-1{fill:none;}.cls-2{fill:#fff;stroke:#e7e7e7;stroke-miterlimit:10;stroke-width:1.7px;}.cls-3{clip-path:url(#clip-path);}.cls-4{fill:silver;}</style><clipPath id="clip-path"><circle class="cls-1" cx="39.69" cy="39.69" r="35.06"/></clipPath></defs><g id="Capa_2" data-name="Capa 2"><g id="Wireframes"><circle class="cls-2" cx="39.69" cy="39.69" r="38.84"/><g class="cls-3"><path class="cls-4" d="M39.69,20.82a15,15,0,1,0,15,15A15,15,0,0,0,39.69,20.82Z"/><path class="cls-4" d="M65.4,62.76A13.8,13.8,0,0,0,63.9,60,18.63,18.63,0,0,0,51,51.9a2.7,2.7,0,0,0-1.9.46,16,16,0,0,1-18.84,0,2.43,2.43,0,0,0-1.9-.46A18.46,18.46,0,0,0,15.49,60,15.74,15.74,0,0,0,14,62.76,1.39,1.39,0,0,0,14.05,64a25.44,25.44,0,0,0,1.76,2.62,25.68,25.68,0,0,0,3,3.4,38.45,38.45,0,0,0,3,2.62,29.87,29.87,0,0,0,35.59,0,29,29,0,0,0,3-2.62,30.82,30.82,0,0,0,3-3.4A24.07,24.07,0,0,0,65.21,64,1.12,1.12,0,0,0,65.4,62.76Z"/></g></g></g></svg>