<svg xmlns="http://www.w3.org/2000/svg" viewBox="0 0 33.54 33.54"><g id="Capa_2" data-name="Capa 2"><g id="Menu_Mentor" data-name="Menu Mentor"><path d="M7.6,29.13l-1.84-.32a11.14,11.14,0,0,1,6.31-8.22l.79,1.69A9.3,9.3,0,0,0,7.6,29.13"/><path d="M25.94,29.13a9.24,9.24,0,0,0-2.58-5,9.64,9.64,0,0,0-2.68-1.87l.78-1.69a11.27,11.27,0,0,1,3.21,2.25,11.05,11.05,0,0,1,3.11,6Z"/><path d="M16.77,33.54A16.77,16.77,0,1,1,33.54,16.77,16.79,16.79,0,0,1,16.77,33.54m0-31.68a14.91,14.91,0,1,0,14.9,14.91A14.93,14.93,0,0,0,16.77,1.86"/><path d="M16.77,24.22c-4.11,0-7.45-3.76-7.45-8.38s3.34-8.39,7.45-8.39,7.45,3.76,7.45,8.39-3.34,8.38-7.45,8.38m0-14.9c-3.08,0-5.59,2.92-5.59,6.52s2.51,6.52,5.59,6.52,5.59-2.93,5.59-6.52-2.51-6.52-5.59-6.52"/></g></g></svg>