<svg xmlns="http://www.w3.org/2000/svg" fill="#009FE3" viewBox="0 0 24.97 20.57"><defs><style>.cls-1{fill-rule:evenodd;}</style></defs><g id="Capa_2" data-name="Capa 2"><g id="Wireframes"><path d="M24.87,2.47a10.86,10.86,0,0,1-2.52.72c.41-.07,1-.81,1.25-1.11A4.67,4.67,0,0,0,24.44.55s0-.09,0-.13a.15.15,0,0,0-.13,0,12.56,12.56,0,0,1-3,1.15.2.2,0,0,1-.2-.05,1.72,1.72,0,0,0-.27-.27A5.15,5.15,0,0,0,19.38.37,5,5,0,0,0,17.16,0a5.37,5.37,0,0,0-4.84,4,5.55,5.55,0,0,0-.05,2.15c0,.12,0,.13-.1.12A16,16,0,0,1,1.87,1.07c-.12-.14-.18-.14-.28,0a5.22,5.22,0,0,0,.89,6.17,8.27,8.27,0,0,0,.63.55,5.23,5.23,0,0,1-2-.55c-.12-.08-.18,0-.19.1a3,3,0,0,0,0,.59,5.28,5.28,0,0,0,3.25,4.21,3.13,3.13,0,0,0,.66.2,5.81,5.81,0,0,1-1.95.06c-.14,0-.2,0-.14.18A5.49,5.49,0,0,0,6.88,16c.19,0,.37,0,.56.07l0,0c-.46.7-2.06,1.22-2.8,1.48a10,10,0,0,1-4.24.54c-.23,0-.28,0-.34,0s0,.1.06.15a9.07,9.07,0,0,0,.89.53A13.68,13.68,0,0,0,3.82,20a15.09,15.09,0,0,0,14.67-3.43c3-3,4.06-7.11,4.06-11.23,0-.16.19-.25.31-.34a9.77,9.77,0,0,0,2-2.08A.55.55,0,0,0,25,2.49v0C25,2.4,25,2.42,24.87,2.47Z"/><path class="cls-1" d="M7.41,20.48Z"/><path class="cls-1" d="M7.41,20.48Z"/><path class="cls-1" d="M8.26,20.5s.44,0,0,0C8.26,20.48,8.31,20.5,8.26,20.5Z"/><path class="cls-1" d="M17.09,0A.11.11,0,0,1,17,0Z"/></g></g></svg>