<svg xmlns="http://www.w3.org/2000/svg" fill="#ffffff" viewBox="0 0 26.44 27.75"><g id="Capa_2" data-name="Capa 2"><g id="Wireframes"><path d="M12,1.29h.11a1.15,1.15,0,0,1,1,1.16v.43a7.25,7.25,0,0,1,6.13,7.16c0,12.17,3.47,7.78,3.47,11v.17a.6.6,0,0,1-.6.6H1.89a.6.6,0,0,1-.6-.6c0-3.72,3.47,1.32,3.47-11.16a7.25,7.25,0,0,1,6.13-7.16V2.42A1.13,1.13,0,0,1,12,1.29m3.75,21.65a3.76,3.76,0,0,1-7.51,0h7.51M12,0A2.43,2.43,0,0,0,9.67,1.84a8.49,8.49,0,0,0-6.2,8.21c0,7.29-1.15,7.88-1.77,8.19a2.82,2.82,0,0,0-1.7,3A1.89,1.89,0,0,0,1.89,23.1H7a5.05,5.05,0,0,0,10.07,0h5.09A1.88,1.88,0,0,0,24,21.21V21a2.69,2.69,0,0,0-1.6-2.72c-.66-.35-1.87-1-1.87-8.27a8.48,8.48,0,0,0-6.21-8.21A2.44,2.44,0,0,0,12.25,0Z"/><path class="cls-1" d="M20.76,14.41A5.21,5.21,0,1,1,26,9.2,5.21,5.21,0,0,1,20.76,14.41Z"/><path d="M20.76,4.47A4.74,4.74,0,1,1,16,9.2a4.73,4.73,0,0,1,4.74-4.73m0-.95A5.69,5.69,0,1,0,26.44,9.2a5.69,5.69,0,0,0-5.68-5.68Z"/></g></g></svg>